<svg xmlns="http://www.w3.org/2000/svg" width="220" height="50" viewBox="0 0 220 50" fill="none"><path d="M38.3682 1.34215C38.3682 0.310413 39.4886 -0.334 40.3837 0.181306L47.9529 4.53951C48.3695 4.77864 48.8819 4.77864 49.2985 4.53951L56.8462 0.182429C57.7425 -0.334 58.8629 0.310413 58.8629 1.34215C58.8629 1.82153 58.6062 2.26386 58.1907 2.50299L49.2974 7.6145C48.8819 7.85251 48.3718 7.85363 47.9563 7.6145L39.0427 2.50299C38.626 2.26386 38.3693 1.82153 38.3693 1.34215H38.3682Z" fill="#FFA525"></path><path d="M64.4712 39.7534C64.0174 40.7941 63.237 41.6844 62.2169 42.2704L51.3181 48.5439C49.6437 49.506 47.5831 49.506 45.9109 48.5439L35.0121 42.2704C33.9919 41.6844 33.2116 40.793 32.7578 39.7534C33.5381 39.6894 34.3095 39.4547 35.0121 39.0506L45.9109 32.7771C47.5831 31.815 48.6145 30.0333 48.6145 28.1079C48.6145 30.0333 49.6437 31.8138 51.3181 32.7771L62.2169 39.0506C62.9173 39.4547 63.6886 39.6894 64.4712 39.7534Z" fill="#FFA525"></path><path d="M48.6108 15.5617V28.1098C48.6108 30.0351 47.5794 31.8168 45.9061 32.7789L35.0073 39.0524C34.3047 39.4566 33.5345 39.6912 32.753 39.7552C32.4602 39.0872 32.3037 38.3564 32.3037 37.6042V25.0561C32.3037 23.1307 33.3329 21.3513 35.0073 20.3869L45.9061 14.1134C46.6065 13.7093 47.3778 13.4746 48.1581 13.4106C48.452 14.0786 48.6097 14.8095 48.6097 15.5617H48.6108Z" fill="#BF7000"></path><path d="M48.1615 13.4097C47.3812 13.4737 46.6099 13.7083 45.9095 14.1125L35.0107 20.386C33.3363 21.3481 32.3071 23.1298 32.3071 25.0552V37.6032C32.3071 38.3554 32.4636 39.0863 32.7564 39.7543C31.6743 39.8441 30.5741 39.6106 29.6024 39.0515L18.7036 32.778C17.0292 31.8159 16 30.0342 16 28.1088V15.5607C16 13.6354 17.0292 11.8548 18.7036 10.8916L29.6024 4.61808C31.2745 3.65595 33.3363 3.65595 35.0096 4.61808L45.9083 10.8916C46.9263 11.4776 47.7066 12.369 48.1604 13.4086L48.1615 13.4097Z" fill="#B0B2B5"></path><path d="M64.9194 25.0532V37.6012C64.9194 38.3546 64.7595 39.0843 64.4701 39.7523C63.6864 39.6883 62.9162 39.4537 62.2147 39.0495L51.3159 32.776C49.6415 31.8139 48.6123 30.0322 48.6123 28.1068V15.5588C48.6123 14.8054 48.7688 14.0757 49.0616 13.4077C49.8419 13.4717 50.6133 13.7063 51.3148 14.1105L62.2136 20.384C63.8868 21.3472 64.9183 23.1278 64.9183 25.0532H64.9194Z" fill="#995A00"></path><path d="M81.229 15.5606V28.1087C81.229 30.0341 80.1976 31.8146 78.5255 32.7779L67.6267 39.0513C66.6549 39.6093 65.5537 39.8439 64.4738 39.7541C64.7643 39.0861 64.9231 38.3553 64.9231 37.6031V25.055C64.9231 23.1296 63.8916 21.3491 62.2195 20.3858L51.3207 14.1124C50.6181 13.7082 49.8479 13.4736 49.0664 13.4096C49.5202 12.3688 50.3005 11.4786 51.3207 10.8925L62.2195 4.61906C63.8916 3.65693 65.9545 3.65693 67.6267 4.61906L78.5255 10.8925C80.1976 11.8547 81.229 13.6363 81.229 15.5617V15.5606Z" fill="#B0B2B5"></path><path d="M138.944 14.6567L143.786 30.0328L148.557 14.6567H154.585L154.561 34.4202H150.928C150.928 34.4202 150.855 34.3529 150.855 34.3484V17.2366C150.855 17.1457 150.363 17.1289 150.317 17.1928L144.992 34.345L144.828 34.4236C143.801 34.3304 142.581 34.5381 141.579 34.4236C141.494 34.4135 141.47 34.4202 141.416 34.345C141.336 34.235 141.151 33.5625 141.088 33.3705C139.341 28.0356 137.765 22.6423 136.013 17.3085C136.013 17.0896 135.455 17.1401 135.455 17.2366V34.3484C135.455 34.3484 135.388 34.4202 135.382 34.4202H132.816C132.816 34.4202 132.743 34.3529 132.743 34.3484V14.7297C132.743 14.7297 132.81 14.6579 132.816 14.6579H138.941L138.944 14.6567Z" fill="#808080"></path><path d="M158.119 14.6561L167.007 14.6538C170.235 14.8626 172.816 15.5194 173.036 19.2085C173.147 21.0519 172.938 23.158 170.951 23.8855L169.548 24.2953C170.835 24.4581 172.059 24.979 172.665 26.1814C173.326 27.4915 173.288 30.3038 172.761 31.6645C171.852 34.012 168.922 34.3376 166.716 34.4207C163.929 34.5251 161.078 34.3365 158.285 34.4207C158.236 34.4308 158.119 34.3859 158.119 34.3454V14.6549V14.6561ZM161.896 16.8486V23.1154C161.896 23.1558 162.014 23.2007 162.063 23.1906C163.544 23.1187 165.1 23.2782 166.572 23.1906C168.266 23.0896 169.019 22.6046 169.114 20.8532C169.173 19.7799 169.281 17.758 168.226 17.154C166.836 16.3591 163.712 16.7375 162.064 16.7757C162.009 16.7712 161.913 16.797 161.898 16.8509L161.896 16.8486ZM161.896 32.2494C163.464 32.1809 165.109 32.3403 166.669 32.2517C167.548 32.2011 168.567 31.9968 168.976 31.1256C169.385 30.2544 169.372 27.4904 169.024 26.5766C168.744 25.839 167.832 25.3091 167.054 25.3091H161.896V32.2505V32.2494Z" fill="#FFA525"></path><path d="M100.007 14.6562V23.092H107.441C107.441 23.092 107.514 23.0246 107.514 23.0201V14.6574H111.219C111.219 14.6574 111.292 14.7247 111.292 14.7292V34.3479C111.292 34.3479 111.224 34.4197 111.219 34.4197H107.514V25.2857C107.514 25.2857 107.446 25.2138 107.441 25.2138H100.007V34.3479C100.007 34.3479 99.9393 34.4197 99.9336 34.4197H96.229V14.6562H100.007Z" fill="#808080"></path><path d="M125.771 14.6567H129.549L129.551 29.577C129.328 33.2493 126.779 34.4045 123.426 34.5662C119.502 34.7559 114.798 34.5561 114.535 29.6253L114.537 14.6567H118.242C118.282 14.6567 118.327 14.7735 118.317 14.8229L118.312 29.6736C118.388 30.767 118.495 31.7741 119.658 32.1906C120.691 32.56 123.677 32.5723 124.658 32.0806C125.638 31.5888 125.669 30.5459 125.775 29.577L125.772 14.6567H125.771Z" fill="#808080"></path><path d="M203.156 14.6574V16.7781H194.656C194.656 16.7781 194.583 16.8455 194.583 16.8499V23.092H201.75V25.2127H194.655C194.655 25.2127 194.582 25.2801 194.582 25.2846V32.2496H203.033C203.049 32.2496 203.106 32.3136 203.154 32.2979V34.3468C203.154 34.3468 203.087 34.4186 203.081 34.4186H190.877C190.877 34.4186 190.804 34.3512 190.804 34.3468V14.6562H203.153L203.156 14.6574Z" fill="#FFA525"></path><path d="M188.341 16.7781H179.842C179.842 16.7781 179.769 16.8455 179.769 16.8499V23.092H186.936V25.2127H179.841C179.841 25.2127 179.768 25.2801 179.768 25.2846V32.2496H188.218C188.234 32.2496 188.292 32.3136 188.34 32.2979V34.3468C188.34 34.3468 188.272 34.4186 188.267 34.4186H176.063C176.063 34.4186 175.99 34.3512 175.99 34.3468V14.6562H188.266C188.266 14.6562 188.339 14.7236 188.339 14.7281V16.777L188.341 16.7781Z" fill="#FFA525"></path></svg>
